<svg id="Layer_1" data-name="Layer 1" xmlns="http://www.w3.org/2000/svg" viewBox="0 0 5.11 438.4"><path d="M11.51,446c.13.23.44.1.38-.53l-.52-.45Z" transform="translate(-10 -7.74)" style="fill:#fff"/><path d="M12.48,441.77c-.26-.75-.7-1.61-1.18-1.13.5.74.29.92.89,1.72.06.63-.17,1.11-.36,1,.13.23-.12,1,.21,1.33a4.06,4.06,0,0,0,.09-3C12.24,441.49,12.38,441.71,12.48,441.77Z" transform="translate(-10 -7.74)" style="fill:#fff"/><path d="M13.29,379.62l-.06.4A2.12,2.12,0,0,0,13.29,379.62Z" transform="translate(-10 -7.74)" style="fill:#fff"/><path d="M13.58,341.11c0,.3.06.42.11.43C13.66,341.27,13.62,341.05,13.58,341.11Z" transform="translate(-10 -7.74)" style="fill:#fff"/><path d="M14.15,334.54l0,.39A.61.61,0,0,0,14.15,334.54Z" transform="translate(-10 -7.74)" style="fill:#fff"/><path d="M13.29,379.62l.17-1C13.29,378.52,13.33,379.12,13.29,379.62Z" transform="translate(-10 -7.74)" style="fill:#fff"/><path d="M11.21,433.2a2.86,2.86,0,0,0,.14.56c0-.18,0-.35,0-.53Z" transform="translate(-10 -7.74)" style="fill:#fff"/><path d="M13.72,396.59v.32a2.39,2.39,0,0,0,.21.26Z" transform="translate(-10 -7.74)" style="fill:#fff"/><path d="M13.8,409.62c0-.29-.43-.4-.62-.51a1,1,0,0,1,.3.64A.46.46,0,0,0,13.8,409.62Z" transform="translate(-10 -7.74)" style="fill:#fff"/><path d="M13,430.28l.07.36C13.06,430.55,13,430.39,13,430.28Z" transform="translate(-10 -7.74)" style="fill:#fff"/><path d="M13.81,387.27a.29.29,0,0,0,.16-.12C13.91,387.15,13.86,387.2,13.81,387.27Z" transform="translate(-10 -7.74)" style="fill:#fff"/><path d="M10.47,22.91s.06,0,.08,0S10.48,22.81,10.47,22.91Z" transform="translate(-10 -7.74)" style="fill:#fff"/><path d="M12.67,7.81l0,.21a1,1,0,0,0,.25,0Z" transform="translate(-10 -7.74)" style="fill:#fff"/><path d="M14.72,322.51v.05C14.77,322.88,14.76,322.7,14.72,322.51Z" transform="translate(-10 -7.74)" style="fill:#fff"/><path d="M14.4,212.05c-.4,1.25-.51-2-1-.15C13.62,211.73,14.14,213.61,14.4,212.05Z" transform="translate(-10 -7.74)" style="fill:#fff"/><path d="M11.27,432.86c0-.18,0-.36,0-.53A3.05,3.05,0,0,0,11.27,432.86Z" transform="translate(-10 -7.74)" style="fill:#fff"/><path d="M13.45,211.9h0l0,.19Z" transform="translate(-10 -7.74)" style="fill:#fff"/><path d="M14.46,294.78a.82.82,0,0,0-.2.29C14.31,295.06,14.36,295,14.46,294.78Z" transform="translate(-10 -7.74)" style="fill:#fff"/><path d="M13.82,315.44l.06-.51A3.65,3.65,0,0,0,13.82,315.44Z" transform="translate(-10 -7.74)" style="fill:#fff"/><path d="M13.83,284.06a2,2,0,0,0,0-.75.39.39,0,0,0-.06.11A1,1,0,0,1,13.83,284.06Z" transform="translate(-10 -7.74)" style="fill:#fff"/><path d="M13.83,272.9a1.33,1.33,0,0,0-.09.21c0,.11,0,.24,0,.35Z" transform="translate(-10 -7.74)" style="fill:#fff"/><path d="M10.69,56.83a1.51,1.51,0,0,1,.4-.52C10.77,56.48,10.66,54.84,10.69,56.83Z" transform="translate(-10 -7.74)" style="fill:#fff"/><path d="M11.46,433.19a.41.41,0,0,1-.19-.33l0,.37C11.36,433.26,11.43,433.27,11.46,433.19Z" transform="translate(-10 -7.74)" style="fill:#fff"/><path d="M10.33,283.61l.06-1.78C10.35,282.33,10.33,283,10.33,283.61Z" transform="translate(-10 -7.74)" style="fill:#fff"/><path d="M10.75,136.9l-.05-.41A.87.87,0,0,0,10.75,136.9Z" transform="translate(-10 -7.74)" style="fill:#fff"/><path d="M10.33,276.57a3.85,3.85,0,0,0,.3-1,.64.64,0,0,0-.11-.2Z" transform="translate(-10 -7.74)" style="fill:#fff"/><path d="M11.09,56.31Z" transform="translate(-10 -7.74)" style="fill:#fff"/><path d="M10,44.63c0,1.69.57.79.9,1.15.17,2-.43.93-.73,1.62.16,1.26.7,2.22.67,3.16-.09.07-.13.26-.25,0,.46,1.33,0,3.95.61,5.5a.49.49,0,0,1-.15.21.91.91,0,0,1,.8-.24c0,.76.37,1.4,0,1.69,0-.46-.14-.5-.26-.72l.16.79c-.54.72-.19-1.08-.59-1.08a23.89,23.89,0,0,1,.48,4.54c-.54.24-.19-2.78-.66-1.19l.2-1.84c-.84,1.4.06-1.11-.84.17-.16,2.42.27,2.71.11,5.11.3.55.44-.17.74.37.54,3.42-1.35,2.69-.63,5.21a2.7,2.7,0,0,1,.68,2.7l-.61-.61c-.06,2.33.87,1.33.46,3.78-.24-.44-.2-1.84-.27-1.48-.48,1.58.34,1.12.34,2.34l-.53.25c.08,2.49.47,5.23.57,8-.16-.16-.33-.63-.5,0a65.3,65.3,0,0,1-.38,10.77l.46,1.28c0,.3-.21.56-.3.23-.17,1.31.3.07.48.7,0,.74-.27,1-.4.51.39,2.31.84,6.57.35,9l-.14-.47c-.19,1.89.95,2.13.52,3.89l-.09-.34c-.2,4.11.23,8.65-.47,11.78.67.6-.3,4.07.63,4.33-.46,2.35-.63,1.67-.94,5,0,.88.58,1.31.68,2.4l-.49,0,.52,1.48-.59.79.13,1c0-.41.22-.87.36-.8.22,1.59-.34,3.89-.59,3.93l.41,3.78c-.2-.08-.26-.72-.39-1.22.5,2-.51.37-.06,2.22.11-.25.29.13.39.18a16,16,0,0,0-.17,4.57l-.34-.3c-.08,2.8.17,5.91.16,9.06.16-1.13.74-.87.79.05l-.51.37c.32.6.19-1,.58.26-.06,1.17-.58.79-.75.11l.18,1.43c-.16.09-.24-.25-.43-.33.32.58-.52,2.46,0,3.31l-.16.08c0,3.14.18,4.57.2,7.13.45.05.35,1.06.71,1.82-.15,1.88-.49,4-.46,6.24.22,1.6.38.47.64,1.18-.4.12-.36,2.39-.65,1.21.06,2.72.08,3.48.41,6.92.16-.37.23-.79.37-.57.07.62-.17,1.42-.36,1.33l0-.17c.6,3.87-1.18,8.93-.34,12l0-.18.44,3.2c-.07,1.46-.31-.89-.56.2.68,3.44-.1,5.44.35,8.28-1.19,2.19.09,7.79-.67,10.75l.28-.17c.27.76-.16.92-.23,1.49.22-.08.25-.83.41-.36.34,6.49-.41,13.39-.67,20-.07,2.44,1.46,1.38.79,4.45l-.53-.87c.63,4.91,0,10,.51,14.84-.12-.28-.27-.29-.27-.76-.38,1,0,3.75.29,3.77,0,.75-.28.17-.44.63-.22,1,.49,2.56.11,3.1-.06.09-.12-.29-.15-.47.18.66-.05,3.09.39,2.45-.21,1.81.19,3.45-.07,4.89.49.94-.23,3.09.46,3.39-.72-.13-.58,3.16-.24,4.3-.22-.38-.22,1-.52.54,0,1.31.14,2.5.51,2.27-.86,2.4.68,4.82-.41,6.17.38,3.87.64,7.44.81,10.92-.71-.12-.07-3.84-.82-3.69.29,3.3.91,5.2.73,8.47-.09.85-.3-.48-.43-.77.3,3.3-.06,6.38.33,9.31-.07,0-.14-.33-.2-.63,0,.58-.1,1.35.22,1.28l-.09-.56c.47-.92,1,2.3,1.24,2.4-.93-1-.24,2.9-1.41,1.34.06.38.21.86.43.77-.06.56-.19.74-.44.17.18,2.07.52,1.33.52,3.21-.16,0-.22-.39-.4-.58a7.91,7.91,0,0,1,.47,3.49c-.09-.1-.21.09-.21-.39.05,2.73.81,4.64.52,7.63-.68-.88-.23,1-.82,1.18l.18,1.6.29-.64c0,1.4.42,2.65.22,3.86l-.24-1.05.11,2.64.23-1.5c.3,1.43.74-.15.58,1.72a13,13,0,0,1-.36,2.14h0a5.46,5.46,0,0,1,.24,2.45c-.19.27-.65-.22-.78,0,.5.69.14,3.29.66,4.16-.12-.29-.43-.3-.49-.21l.4.58c-.13.65-.19.75-.44.64-.07,2,.75-.62.43,1.71,0-.19-.09-.1-.16-.48-.16,2.34.26,4.51.06,6.66-.59.63-.14-1.88-.64-1.15.1,3.1.71,6.41.57,9.41l.06-.56c.84.41-.41,2.23,0,3.74-.06-.37-.46-.48-.37-.38a54.93,54.93,0,0,0,.47,7.3l-.21-.39c-.2,1.21-.11,3.19-.21,4.49.21.39.18,1.14.49.68-1.23,4,.66,7.68-.36,11.26,0-.43-.19-1-.19-.68l.2,3c.36-.24.22-.4.5-1a4.87,4.87,0,0,1,.38,2c-.24-1.37-.58,0-.79.61.12-.1.24.1.35.05-.65,1.59.74.27.3,2.44l-.19-.12a12.82,12.82,0,0,1,.3,2.44c-.43.36-.2-.87-.55-.92,0,1.23.8,2.42.38,3.54-.12-.52-.12-1.28-.24-1.8a5,5,0,0,0-.44,2.26v-.09l-.23,2.08.14-.53c1.1,1.54.2,3.13.92,5.21-.68-2-.4-.33-.87-.49-.14.53-.29,1.34-.42,1.11.39,1-.3,1.63.26,3-.15.06,0,1-.4.82.12,1.28.27-.3.46-.19.53,2-.64,4.62.08,7.44.3,2.44.82,2.89,1.08,5.15-.25.76-.56-.62-.56-.62a9,9,0,0,0,0,3.31c-.14-.23-.25,0-.42.36,0,.94.56.63.33,1.86a3.38,3.38,0,0,1-.62-.93c.14,1.09.43,2.18.57,3.31-.27.3-.41-.68-.58-1.08.12,1.27.24,3.3.67,3.7l.15-.82c0,.46-.37.24-.44-.1-.34-1.1.14-1.58.3-1.64l.1.8c.9-.83-.15-3.24-.1-4.87l.66.68-.54-1.67c.17-.36.53-.6.63.2.33-1.17-.23-1,.13-2,.06-.12.09-.07.11,0l-.19-1.14c.14.22.46-.19.37.51.38-2-.5-3.3,0-4.07l0,.17c-.22-2.84-.48-.28-1.05-2.41l1.19-1.43-.48-.28c0-.3.06-.87.25-.77-.33-1.09-.21.19-.52-.44.44-1.42-.21-3.89.56-4.21-.37-.51-.28,1.35-.54-.16.83-.43-.14-1.74.24-3,.43.4.2,1.62.58.33-.72-.78.16-2.51,0-3.6-.57-.05-.24-2.36-.43-4.18.19.11.32-3.44.52-5.13l.1.05c-.58-.33-.47-2.08-.59-3.36.35.05.48.28.64,1v-1.19a2.92,2.92,0,0,1-.35-1.44l.43.3c0-1.59-.51-3.21-.22-5.26-.41-.11-1.13,1.63-1.4-.54.22-.08.59-.16.68.41a2.66,2.66,0,0,1-.08-1l.36.87c.17-.93-.3-.49-.27-1.24.31,0,.22-.55.47-.44,0,.19-.13.65,0,.94a6.06,6.06,0,0,1,.48-2.2c-.18.07-.42,0-.46-.62,0-1.59.38-.54.54-1.47-.22-.39,0-1.41-.46-1.43,0-.47.22-.56.34-.74-.2-.82,0-3.85-.55-2.92l0,.21s0-.09,0-.13h0c-.47-2.71.26-5.62.06-8.31h.16a38.67,38.67,0,0,0-.44-4.71c0-.48.28-1.12.47-.92a8.37,8.37,0,0,1,0-3.13c.27,1.23.24-.42.2,1.26a8,8,0,0,0,0-3.66c.4.59.5-1.19.38-1.95l-.28,1.11a18.18,18.18,0,0,1,0-2.34l.52.4c.64-3.25-1.08-5.87,0-8.35-.37-.86-.26,1.77-.69,1a25.4,25.4,0,0,1,.82-3.53c.3-2.05-.76-1.91-.56-4.06-.19.28-.69.54-.87-1.07.07-1.5.79-1.84.94-.89,0,.36-.05.53-.11.51.07.49.15,1.12.35.53l-.19-.19c.2-.75.18-2.81.48-2.33-.18-1.13-.3-.48-.4.36.27-1.92,0-3,.19-5-.1.31-.32.6-.32.29.23-2.91-.36-1.28-.44-3.25.29-1.11.68.4.44-1.58.2-1.21.5-.25.65.23-.36-1.81.24-3.37.31-4.4l.15.95a9.08,9.08,0,0,1-.09-1.51l-.37.54c.06-.55.06-1,.22-1-.25-.57-.62.44-1-.7.19-.74-.2-2.26.29-2.52-.17,2.34.5-.26.58,1.72a5.48,5.48,0,0,1,0-1.4c.06-.09.11.07.13.23.45-2.24-.56-1-.55-3.35.28.29.53-.54.47-.92,0,.94-.46.45-.68-.41.22-1.49-.16-1.61-.14-2.39l-.1.89c-.28-.31-.24-1.05-.33-2.09.22-.08.15.95.25.58-.5-1.16.51-2.61.17-4.21.2-.74.53-.07.66-.73-.36-1.79.38-1.94.08-3.83-.37.54-.28.64-.65-.7l.27,3.11-.55-2c0,.94.24,2,.17,2.54-.31-.95-.21-.85-.52-.4.56-1.29-.33-2.55.05-4l.93,0c.42-2.23-.48-4-.24-6.86l-.17.93c-.37-.39-.05-1.79-.2-2.72.31.08.43-.5.62-.9-.23.05,0-2.12-.6-2.39l.41-1.29c.17-2.34-.89-2.67-.78-4.92.34.68.56-.34.8,1.16,0-.75.06-1.42-.15-1.43.19-.44-.42-2.09-.13-2.78a1.78,1.78,0,0,1-.44-1.26c.07-.09.16,0,.16,0-.16,0-.21-1.32-.56-.59,1-2.31-.07-6.46.77-8.47-.11-1.64-.21-3.62-.23-5.1.09.09.16,0,.12.28.29-2.05-.89-1.26-.57-3.59.51-1.2.27,1.24.47.49,1-.32-.15-2.82.45-4.39l.06.38c.35-1.2-.38-2.93-.31-4.89,0,0,.09.1.15,0a25.43,25.43,0,0,1-.84-5.77c.4.59.21.86.62.5-.05-.84-.65.25-.77-1.44.22-.55.42-1.77.85-1.93l0,1.6c.57-.82,0-2.07.08-2.91l.25.11c-.08-2.44-.7-2.47-.66-5.1l-.18.27c-.62-1.43.34-1.2-.11-2.63l.62-.43c-.15-.95-.6-3.32-.72-5a24.82,24.82,0,0,1,1,4.17,12.48,12.48,0,0,0-.35-3.67,3.38,3.38,0,0,1,.12,1.22,11.53,11.53,0,0,1-.73-4.53c1.21.33.31-4.87,1.25-6.23-.45-3.3.19-6.56.12-10.41-.94,1.37,0-1.12-1-.89a3.5,3.5,0,0,1,0-1.32l.58-2.71c.28-.65.21.85.43.77.07-2,.41-.83.66-2.13-.34.27-.49-.68-.36-1.8l-.44,1.58c-.52-2.75.81-2.38.3-5.14l.3.87c-.18-1.42,0-5.24-.77-6.63.11-.25.38-.58.45,0,.11-3.39-.83-7.55-.35-10.19l.24.26c-.07-.63-.45-1.1-.21-1.9.1.05.24.26.25,0a8.05,8.05,0,0,1-.28-2.52l.27.71c.31-3.31-.65-5.08-.81-7.85.69,0,.92-2.6,1-3.9l.1,0c.09-3.86-.57-6.55-.85-10.12.76-2.22.32-7.51.74-11.07-.12.55-.54-.09-.61-.72.14-.83-.48-2.31.16-2.18l0,.3c.63-.63.46-2.35.48-3.69l-.83-.22c1.21-3.5-.45-9.19.64-11.1-.21-.85-.21-1.9-.42-2.74l.45,0a60.67,60.67,0,0,0,.06-6.41l.32.59c0-1.64-1.29-2.07-1.31-3.58l.66-.45c0-2.85.58-5.74,0-8.56.1,0,.3.13.32.59,0-1.34.45-5.19-.46-4.7.59,0,.06-3-.21-4.49l.44.24a6.87,6.87,0,0,1-.87-3.15c.06-.43.35-.38.24.19.23-1.43-.42-1.12-.18-2.85l.28.64a3.34,3.34,0,0,0-.45-2.17c-.17-.92.12-2.8.51-3a2.49,2.49,0,0,1-.45-1.88c.15-.12.25.2.29.36.3-2.47-.51-3.67-.08-5.37a.34.34,0,0,0,.26-.28c0,2,0,3.54-.06,3.39.4,0,.47-1.59,1-.33a15.61,15.61,0,0,1-.78-5,.49.49,0,0,1,.14-.21l0,.16a3.08,3.08,0,0,0-.06-1,11.5,11.5,0,0,0,.12-1.28c.33-.18.18-1.82.2-2.6-.45.06-.38-1-.74,0,0-.13,0,.14.07.67a2.66,2.66,0,0,0,0,.34.21.21,0,0,0,0-.06c0,.52,0,1.2,0,2a3.22,3.22,0,0,1-.16-2.14A13,13,0,0,1,13,78.44c.62-1.08,1-3.16,1.33-3.45-.24-2.41-.16-5.68-1-7.19-.11-.69.24-.79.37-1a5.76,5.76,0,0,0,.19,1.08c-.22-1.37-.09-4.06-.67-4.39.26-1.73.54,1,.44-1.4l.18.32c.93-4.67-1.49-7.59-.29-12.77-.07.36-.11.54-.21.61.53-5.9-.49-12.16.35-18a5.1,5.1,0,0,0-.49-2.84l.48-.36-.56-1.73c-.4-2.45,1.18-4.24.41-7.34l-.32.4c.06-1.11-.19-3.52.18-3.34a.78.78,0,0,1-.16-.8l.25,0-.43-2.74c.18-2.12,1,.33,1-2.76-.1-1.15-.73-3.28-.9-2.84,0,.46-.15,1.18-.4,1.22L12.7,8c-.74-.2-1.49-1-2,1.58l.45,1.8-.35.58,0-1.52a2.54,2.54,0,0,0,.16,2,1.17,1.17,0,0,0-.39.75l.7,1.77c-.29.21-.57-.8-.73.39.33.83.65-.79.86.58-.33.86-.61.61-.32,1.62-.19.14-.31-.08-.39-.48.22.9.09,2.38.48,2.85-.41.89.11,3-.59,2.95a7.61,7.61,0,0,1,.58,2.41c-.83-1.51-.05,3.09-.94,2.69.75,1.12.33,4,.74,6a.89.89,0,0,1-.14-.5,10.07,10.07,0,0,1-.43,2.15c.62.14.76,1.88,1.15,2.81-.6,1.37-.73-.83-1.31-.4.51-.07.51,2.37.92,1.91-.37,1-.18.9-.69,1.44.78.18.13,1,.61,1.83-.38,1.52-.73.39-.49,2.05C10.31,46.1,10,44.63,10,44.63Zm1.34,39.46h0c0-.34,0-.63,0-.81C11.35,83.45,11.36,83.68,11.38,84.09Zm0,3.32c0-.41,0-.91,0-1.44.15-.12.31,0,.3.34C11.6,86.13,11.51,86.91,11.38,87.41Zm3.08-7c.06.53,0,.7-.12.78,0-.25,0-.54-.05-.92,0,0,0,0,0-.06A.59.59,0,0,1,14.46,80.39Z" transform="translate(-10 -7.74)" style="fill:#fff"/><path d="M13.88,79.45c0-.08,0-.12,0-.22,0,.11-.07.21-.09.32l.13.18Z" transform="translate(-10 -7.74)" style="fill:#fff"/><path d="M13.22,380.09V380l-.06.15A.28.28,0,0,1,13.22,380.09Z" transform="translate(-10 -7.74)" style="fill:#fff"/><polygon points="0.53 125.46 0.64 125.45 0.55 125.17 0.53 125.46" style="fill:#fff"/><path d="M11.69,398.36a.59.59,0,0,0-.11.24A.67.67,0,0,0,11.69,398.36Z" transform="translate(-10 -7.74)" style="fill:#fff"/><path d="M11.6,406.25l-.16,1.11C11.53,406.88,11.57,406.53,11.6,406.25Z" transform="translate(-10 -7.74)" style="fill:#fff"/><path d="M11.38,412.31a.37.37,0,0,0,.19.12h0Z" transform="translate(-10 -7.74)" style="fill:#fff"/><path d="M10.85,315.85a.86.86,0,0,0,0-.23C10.75,315.07,10.78,315.45,10.85,315.85Z" transform="translate(-10 -7.74)" style="fill:#fff"/><path d="M11.89,344.56c-.08-.3-.16-.61-.21-.92C11.65,344.15,11.64,344.54,11.89,344.56Z" transform="translate(-10 -7.74)" style="fill:#fff"/><path d="M10.32,283.8h0a1.2,1.2,0,0,1,0-.19Z" transform="translate(-10 -7.74)" style="fill:#fff"/><path d="M11.69,342.3a4,4,0,0,0,0,1.34A6,6,0,0,0,11.69,342.3Z" transform="translate(-10 -7.74)" style="fill:#fff"/><path d="M11.17,438.61v.29s.05,0,.07,0Z" transform="translate(-10 -7.74)" style="fill:#fff"/><path d="M11.23,438.93l0,.33C11.28,439.11,11.28,439,11.23,438.93Z" transform="translate(-10 -7.74)" style="fill:#fff"/><path d="M11.39,439.94l-.11-.68A1.14,1.14,0,0,0,11.39,439.94Z" transform="translate(-10 -7.74)" style="fill:#fff"/><path d="M11.38,430.58l-.16-.1A.21.21,0,0,0,11.38,430.58Z" transform="translate(-10 -7.74)" style="fill:#fff"/><path d="M11.33,428.13a11.48,11.48,0,0,0-.24,2.28l.13.07C11,430.1,11.6,428.69,11.33,428.13Z" transform="translate(-10 -7.74)" style="fill:#fff"/><path d="M13.32,418l-.13,2c.18-.35.41-.82.45.11C14.15,417.52,13.25,420.63,13.32,418Z" transform="translate(-10 -7.74)" style="fill:#fff"/><path d="M13.57,411.61c.08,1.1.25,0,.35,0C13.76,411,13.72,410.79,13.57,411.61Z" transform="translate(-10 -7.74)" style="fill:#fff"/><path d="M13.57,365.78l.41.11C13.92,365.05,13.82,365.88,13.57,365.78Z" transform="translate(-10 -7.74)" style="fill:#fff"/><polygon points="1.49 349.28 1.23 350.1 1.6 350.49 1.49 349.28" style="fill:#fff"/><polygon points="4.36 344.1 4.42 344.47 4.27 343.06 4.36 344.1" style="fill:#fff"/><path d="M14.22,274.89l-.5.25C13.81,275.71,14.37,275.83,14.22,274.89Z" transform="translate(-10 -7.74)" style="fill:#fff"/><path d="M13.71,241.66a2.4,2.4,0,0,0,.17-1.87A17.18,17.18,0,0,0,13.71,241.66Z" transform="translate(-10 -7.74)" style="fill:#fff"/><polygon points="4.52 134.27 4.69 134.94 4.55 133.68 4.52 134.27" style="fill:#fff"/></svg>